  0
SECTION
  2
HEADER
  9
$ACADVER
  1
AC1024
  9
$ACADMAINTVER
 70
6
  9
$DWGCODEPAGE
  3
ANSI_1252
  9
$LASTSAVEDBY
  1
ezdxf
  9
$INSBASE
 10
0.0
 20
0.0
 30
0.0
  9
$EXTMIN
 10
1e+20
 20
1e+20
 30
1e+20
  9
$EXTMAX
 10
-1e+20
 20
-1e+20
 30
-1e+20
  9
$LIMMIN
 10
0.0
 20
0.0
  9
$LIMMAX
 10
420.0
 20
297.0
  9
$ORTHOMODE
 70
0
  9
$REGENMODE
 70
1
  9
$FILLMODE
 70
1
  9
$QTEXTMODE
 70
0
  9
$MIRRTEXT
 70
1
  9
$LTSCALE
 40
1.0
  9
$ATTMODE
 70
1
  9
$TEXTSIZE
 40
2.5
  9
$TRACEWID
 40
1.0
  9
$TEXTSTYLE
  7
Standard
  9
$CLAYER
  8
0
  9
$CELTYPE
  6
ByLayer
  9
$CECOLOR
 62
256
  9
$CELTSCALE
 40
1.0
  9
$DISPSILH
 70
0
  9
$DIMSCALE
 40
1.0
  9
$DIMASZ
 40
2.5
  9
$DIMEXO
 40
0.625
  9
$DIMDLI
 40
3.75
  9
$DIMRND
 40
0.0
  9
$DIMDLE
 40
0.0
  9
$DIMEXE
 40
1.25
  9
$DIMTP
 40
0.0
  9
$DIMTM
 40
0.0
  9
$DIMTXT
 40
2.5
  9
$DIMCEN
 40
2.5
  9
$DIMTSZ
 40
0.0
  9
$DIMTOL
 70
0
  9
$DIMLIM
 70
0
  9
$DIMTIH
 70
0
  9
$DIMTOH
 70
0
  9
$DIMSE1
 70
0
  9
$DIMSE2
 70
0
  9
$DIMTAD
 70
1
  9
$DIMZIN
 70
8
  9
$DIMBLK
  1

  9
$DIMASO
 70
1
  9
$DIMSHO
 70
1
  9
$DIMPOST
  1

  9
$DIMAPOST
  1

  9
$DIMALT
 70
0
  9
$DIMALTD
 70
3
  9
$DIMALTF
 40
0.03937007874
  9
$DIMLFAC
 40
1.0
  9
$DIMTOFL
 70
1
  9
$DIMTVP
 40
0.0
  9
$DIMTIX
 70
0
  9
$DIMSOXD
 70
0
  9
$DIMSAH
 70
0
  9
$DIMBLK1
  1

  9
$DIMBLK2
  1

  9
$DIMSTYLE
  2
ISO-25
  9
$DIMCLRD
 70
0
  9
$DIMCLRE
 70
0
  9
$DIMCLRT
 70
0
  9
$DIMTFAC
 40
1.0
  9
$DIMGAP
 40
0.625
  9
$DIMJUST
 70
0
  9
$DIMSD1
 70
0
  9
$DIMSD2
 70
0
  9
$DIMTOLJ
 70
0
  9
$DIMTZIN
 70
8
  9
$DIMALTZ
 70
0
  9
$DIMALTTZ
 70
0
  9
$DIMUPT
 70
0
  9
$DIMDEC
 70
2
  9
$DIMTDEC
 70
2
  9
$DIMALTU
 70
2
  9
$DIMALTTD
 70
3
  9
$DIMTXSTY
  7
Standard
  9
$DIMAUNIT
 70
0
  9
$DIMADEC
 70
0
  9
$DIMALTRND
 40
0.0
  9
$DIMAZIN
 70
0
  9
$DIMDSEP
 70
44
  9
$DIMATFIT
 70
3
  9
$DIMFRAC
 70
0
  9
$DIMLDRBLK
  1

  9
$DIMLUNIT
 70
2
  9
$DIMLWD
 70
-2
  9
$DIMLWE
 70
-2
  9
$DIMTMOVE
 70
0
  9
$DIMFXL
 40
1.0
  9
$DIMFXLON
 70
0
  9
$DIMJOGANG
 40
0.785398163397
  9
$DIMTFILL
 70
0
  9
$DIMTFILLCLR
 70
0
  9
$DIMARCSYM
 70
0
  9
$DIMLTYPE
  6

  9
$DIMLTEX1
  6

  9
$DIMLTEX2
  6

  9
$DIMTXTDIRECTION
 70
0
  9
$LUNITS
 70
2
  9
$LUPREC
 70
4
  9
$SKETCHINC
 40
1.0
  9
$FILLETRAD
 40
10.0
  9
$AUNITS
 70
0
  9
$AUPREC
 70
2
  9
$MENU
  1
.
  9
$ELEVATION
 40
0.0
  9
$PELEVATION
 40
0.0
  9
$THICKNESS
 40
0.0
  9
$LIMCHECK
 70
0
  9
$CHAMFERA
 40
0.0
  9
$CHAMFERB
 40
0.0
  9
$CHAMFERC
 40
0.0
  9
$CHAMFERD
 40
0.0
  9
$SKPOLY
 70
0
  9
$TDCREATE
 40
2460883.659340278
  9
$TDUCREATE
 40
2458532.153996898
  9
$TDUPDATE
 40
2460883.659340278
  9
$TDUUPDATE
 40
2458532.1544311
  9
$TDINDWG
 40
0.0
  9
$TDUSRTIMER
 40
0.0
  9
$USRTIMER
 70
1
  9
$ANGBASE
 50
0.0
  9
$ANGDIR
 70
0
  9
$PDMODE
 70
0
  9
$PDSIZE
 40
0.0
  9
$PLINEWID
 40
0.0
  9
$SPLFRAME
 70
0
  9
$SPLINETYPE
 70
6
  9
$SPLINESEGS
 70
8
  9
$HANDSEED
  5
39
  9
$SURFTAB1
 70
6
  9
$SURFTAB2
 70
6
  9
$SURFTYPE
 70
6
  9
$SURFU
 70
6
  9
$SURFV
 70
6
  9
$UCSBASE
  2

  9
$UCSNAME
  2

  9
$UCSORG
 10
0.0
 20
0.0
 30
0.0
  9
$UCSXDIR
 10
1.0
 20
0.0
 30
0.0
  9
$UCSYDIR
 10
0.0
 20
1.0
 30
0.0
  9
$UCSORTHOREF
  2

  9
$UCSORTHOVIEW
 70
0
  9
$UCSORGTOP
 10
0.0
 20
0.0
 30
0.0
  9
$UCSORGBOTTOM
 10
0.0
 20
0.0
 30
0.0
  9
$UCSORGLEFT
 10
0.0
 20
0.0
 30
0.0
  9
$UCSORGRIGHT
 10
0.0
 20
0.0
 30
0.0
  9
$UCSORGFRONT
 10
0.0
 20
0.0
 30
0.0
  9
$UCSORGBACK
 10
0.0
 20
0.0
 30
0.0
  9
$PUCSBASE
  2

  9
$PUCSNAME
  2

  9
$PUCSORG
 10
0.0
 20
0.0
 30
0.0
  9
$PUCSXDIR
 10
1.0
 20
0.0
 30
0.0
  9
$PUCSYDIR
 10
0.0
 20
1.0
 30
0.0
  9
$PUCSORTHOREF
  2

  9
$PUCSORTHOVIEW
 70
0
  9
$PUCSORGTOP
 10
0.0
 20
0.0
 30
0.0
  9
$PUCSORGBOTTOM
 10
0.0
 20
0.0
 30
0.0
  9
$PUCSORGLEFT
 10
0.0
 20
0.0
 30
0.0
  9
$PUCSORGRIGHT
 10
0.0
 20
0.0
 30
0.0
  9
$PUCSORGFRONT
 10
0.0
 20
0.0
 30
0.0
  9
$PUCSORGBACK
 10
0.0
 20
0.0
 30
0.0
  9
$USERI1
 70
0
  9
$USERI2
 70
0
  9
$USERI3
 70
0
  9
$USERI4
 70
0
  9
$USERI5
 70
0
  9
$USERR1
 40
0.0
  9
$USERR2
 40
0.0
  9
$USERR3
 40
0.0
  9
$USERR4
 40
0.0
  9
$USERR5
 40
0.0
  9
$WORLDVIEW
 70
1
  9
$SHADEDGE
 70
3
  9
$SHADEDIF
 70
70
  9
$TILEMODE
 70
1
  9
$MAXACTVP
 70
64
  9
$PINSBASE
 10
0.0
 20
0.0
 30
0.0
  9
$PLIMCHECK
 70
0
  9
$PEXTMIN
 10
1e+20
 20
1e+20
 30
1e+20
  9
$PEXTMAX
 10
-1e+20
 20
-1e+20
 30
-1e+20
  9
$PLIMMIN
 10
0.0
 20
0.0
  9
$PLIMMAX
 10
420.0
 20
297.0
  9
$UNITMODE
 70
0
  9
$VISRETAIN
 70
1
  9
$PLINEGEN
 70
0
  9
$PSLTSCALE
 70
1
  9
$TREEDEPTH
 70
3020
  9
$CMLSTYLE
  2
Standard
  9
$CMLJUST
 70
0
  9
$CMLSCALE
 40
20.0
  9
$PROXYGRAPHICS
 70
1
  9
$MEASUREMENT
 70
1
  9
$CELWEIGHT
370
-1
  9
$ENDCAPS
280
0
  9
$JOINSTYLE
280
0
  9
$LWDISPLAY
290
0
  9
$INSUNITS
 70
6
  9
$HYPERLINKBASE
  1

  9
$STYLESHEET
  1

  9
$XEDIT
290
1
  9
$CEPSNTYPE
380
0
  9
$PSTYLEMODE
290
1
  9
$FINGERPRINTGUID
  2
{8B20DB8F-3D4E-4B96-BB6E-5D336DD3CC67}
  9
$VERSIONGUID
  2
{6986F514-B255-46D5-8895-D459DD610CB6}
  9
$EXTNAMES
290
1
  9
$PSVPSCALE
 40
0.0
  9
$OLESTARTUP
290
0
  9
$SORTENTS
280
127
  9
$INDEXCTL
280
0
  9
$HIDETEXT
280
1
  9
$XCLIPFRAME
280
1
  9
$HALOGAP
280
0
  9
$OBSCOLOR
 70
257
  9
$OBSLTYPE
280
0
  9
$INTERSECTIONDISPLAY
280
0
  9
$INTERSECTIONCOLOR
 70
257
  9
$DIMASSOC
280
2
  9
$PROJECTNAME
  1

  9
$CAMERADISPLAY
290
0
  9
$LENSLENGTH
 40
50.0
  9
$CAMERAHEIGHT
 40
0.0
  9
$STEPSPERSEC
 40
24.0
  9
$STEPSIZE
 40
100.0
  9
$3DDWFPREC
 40
2.0
  9
$PSOLWIDTH
 40
0.005
  9
$PSOLHEIGHT
 40
0.08
  9
$LOFTANG1
 40
1.570796326795
  9
$LOFTANG2
 40
1.570796326795
  9
$LOFTMAG1
 40
0.0
  9
$LOFTMAG2
 40
0.0
  9
$LOFTPARAM
 70
7
  9
$LOFTNORMALS
280
1
  9
$LATITUDE
 40
37.795
  9
$LONGITUDE
 40
-122.394
  9
$NORTHDIRECTION
 40
0.0
  9
$TIMEZONE
 70
-8000
  9
$LIGHTGLYPHDISPLAY
280
1
  9
$TILEMODELIGHTSYNCH
280
1
  9
$CMATERIAL
347
20
  9
$SOLIDHIST
280
0
  9
$SHOWHIST
280
1
  9
$DWFFRAME
280
2
  9
$DGNFRAME
280
2
  9
$REALWORLDSCALE
290
1
  9
$INTERFERECOLOR
 62
256
  9
$CSHADOW
280
0
  9
$SHADOWPLANELOCATION
 40
0.0
  0
ENDSEC
  0
SECTION
  2
CLASSES
  0
CLASS
  1
ACDBDICTIONARYWDFLT
  2
AcDbDictionaryWithDefault
  3
ObjectDBX Classes
 90
0
 91
0
280
0
281
0
  0
CLASS
  1
SUN
  2
AcDbSun
  3
SCENEOE
 90
1153
 91
0
280
0
281
0
  0
CLASS
  1
VISUALSTYLE
  2
AcDbVisualStyle
  3
ObjectDBX Classes
 90
4095
 91
0
280
0
281
0
  0
CLASS
  1
MATERIAL
  2
AcDbMaterial
  3
ObjectDBX Classes
 90
1153
 91
0
280
0
281
0
  0
CLASS
  1
SCALE
  2
AcDbScale
  3
ObjectDBX Classes
 90
1153
 91
0
280
0
281
0
  0
CLASS
  1
TABLESTYLE
  2
AcDbTableStyle
  3
ObjectDBX Classes
 90
4095
 91
0
280
0
281
0
  0
CLASS
  1
MLEADERSTYLE
  2
AcDbMLeaderStyle
  3
ACDB_MLEADERSTYLE_CLASS
 90
4095
 91
0
280
0
281
0
  0
CLASS
  1
DICTIONARYVAR
  2
AcDbDictionaryVar
  3
ObjectDBX Classes
 90
0
 91
0
280
0
281
0
  0
CLASS
  1
CELLSTYLEMAP
  2
AcDbCellStyleMap
  3
ObjectDBX Classes
 90
1152
 91
0
280
0
281
0
  0
CLASS
  1
MENTALRAYRENDERSETTINGS
  2
AcDbMentalRayRenderSettings
  3
SCENEOE
 90
1024
 91
0
280
0
281
0
  0
CLASS
  1
ACDBDETAILVIEWSTYLE
  2
AcDbDetailViewStyle
  3
ObjectDBX Classes
 90
1025
 91
0
280
0
281
0
  0
CLASS
  1
ACDBSECTIONVIEWSTYLE
  2
AcDbSectionViewStyle
  3
ObjectDBX Classes
 90
1025
 91
0
280
0
281
0
  0
CLASS
  1
RASTERVARIABLES
  2
AcDbRasterVariables
  3
ISM
 90
0
 91
0
280
0
281
0
  0
CLASS
  1
ACDBPLACEHOLDER
  2
AcDbPlaceHolder
  3
ObjectDBX Classes
 90
0
 91
0
280
0
281
0
  0
CLASS
  1
LAYOUT
  2
AcDbLayout
  3
ObjectDBX Classes
 90
0
 91
0
280
0
281
0
  0
ENDSEC
  0
SECTION
  2
TABLES
  0
TABLE
  2
VPORT
  5
8
330
0
100
AcDbSymbolTable
 70
1
  0
VPORT
  5
23
330
8
100
AcDbSymbolTableRecord
100
AcDbViewportTableRecord
  2
*Active
 70
0
 10
0.0
 20
0.0
 11
1.0
 21
1.0
 12
0.0
 22
0.0
 13
0.0
 23
0.0
 14
0.5
 24
0.5
 15
0.5
 25
0.5
 16
0.0
 26
0.0
 36
1.0
 17
0.0
 27
0.0
 37
0.0
 40
1000.0
 41
1.34
 42
50.0
 43
0.0
 44
0.0
 50
0.0
 51
0.0
 71
0
 72
1000
 73
1
 74
3
 75
0
 76
0
 77
0
 78
0
281
0
 65
0
146
0.0
  0
ENDTAB
  0
TABLE
  2
LTYPE
  5
2
330
0
100
AcDbSymbolTable
 70
3
  0
LTYPE
  5
24
330
2
100
AcDbSymbolTableRecord
100
AcDbLinetypeTableRecord
  2
ByBlock
 70
0
  3

 72
65
 73
0
 40
0.0
  0
LTYPE
  5
25
330
2
100
AcDbSymbolTableRecord
100
AcDbLinetypeTableRecord
  2
ByLayer
 70
0
  3

 72
65
 73
0
 40
0.0
  0
LTYPE
  5
26
330
2
100
AcDbSymbolTableRecord
100
AcDbLinetypeTableRecord
  2
Continuous
 70
0
  3

 72
65
 73
0
 40
0.0
  0
ENDTAB
  0
TABLE
  2
LAYER
  5
1
330
0
100
AcDbSymbolTable
 70
5
  0
LAYER
  5
27
330
1
100
AcDbSymbolTableRecord
100
AcDbLayerTableRecord
  2
0
 70
0
 62
7
  6
Continuous
370
-3
390
13
347
21
  0
LAYER
  5
28
330
1
100
AcDbSymbolTableRecord
100
AcDbLayerTableRecord
  2
Defpoints
 70
0
 62
7
  6
Continuous
290
0
370
-3
390
13
347
21
  0
LAYER
  5
30
330
1
100
AcDbSymbolTableRecord
100
AcDbLayerTableRecord
  2
MARKS
 70
0
 62
2
  6
Continuous
370
-3
390
13
347
21
  0
LAYER
  5
31
330
1
100
AcDbSymbolTableRecord
100
AcDbLayerTableRecord
  2
CHORD_LINE
 70
0
 62
3
  6
Continuous
370
-3
390
13
347
21
  0
LAYER
  5
32
330
1
100
AcDbSymbolTableRecord
100
AcDbLayerTableRecord
  2
DIMENSIONS
 70
0
 62
4
  6
Continuous
370
-3
390
13
347
21
  0
ENDTAB
  0
TABLE
  2
STYLE
  5
5
330
0
100
AcDbSymbolTable
 70
1
  0
STYLE
  5
29
330
5
100
AcDbSymbolTableRecord
100
AcDbTextStyleTableRecord
  2
Standard
 70
0
 40
0.0
 41
1.0
 50
0.0
 71
0
 42
2.5
  3
txt
  4

  0
ENDTAB
  0
TABLE
  2
VIEW
  5
7
330
0
100
AcDbSymbolTable
 70
0
  0
ENDTAB
  0
TABLE
  2
UCS
  5
6
330
0
100
AcDbSymbolTable
 70
0
  0
ENDTAB
  0
TABLE
  2
APPID
  5
3
330
0
100
AcDbSymbolTable
 70
3
  0
APPID
  5
2A
330
3
100
AcDbSymbolTableRecord
100
AcDbRegAppTableRecord
  2
ACAD
 70
0
  0
APPID
  5
36
330
3
100
AcDbSymbolTableRecord
100
AcDbRegAppTableRecord
  2
HATCHBACKGROUNDCOLOR
 70
0
  0
APPID
  5
37
330
3
100
AcDbSymbolTableRecord
100
AcDbRegAppTableRecord
  2
EZDXF
 70
0
  0
ENDTAB
  0
TABLE
  2
DIMSTYLE
  5
4
330
0
100
AcDbSymbolTable
 70
1
100
AcDbDimStyleTable
  0
DIMSTYLE
105
2B
330
4
100
AcDbSymbolTableRecord
100
AcDbDimStyleTableRecord
  2
Standard
 70
0
 40
1.0
 41
2.5
 42
0.625
 43
3.75
 44
1.25
 45
0.0
 46
0.0
 47
0.0
 48
0.0
 49
2.5
140
2.5
141
2.5
142
0.0
143
0.03937007874
144
1.0
145
0.0
146
1.0
147
0.625
148
0.0
 69
0
 70
0
 71
0
 72
0
 73
0
 74
0
 75
0
 76
0
 77
1
 78
8
 79
3
170
0
171
3
172
1
173
0
174
0
175
0
176
0
177
0
178
0
179
2
271
2
272
2
273
2
274
3
275
0
276
0
277
2
278
44
279
0
280
0
281
0
282
0
283
0
284
8
285
0
286
0
288
0
289
3
290
0
371
-2
372
-2
  0
ENDTAB
  0
TABLE
  2
BLOCK_RECORD
  5
9
330
0
100
AcDbSymbolTable
 70
2
  0
BLOCK_RECORD
  5
17
330
9
100
AcDbSymbolTableRecord
100
AcDbBlockTableRecord
  2
*Model_Space
340
1A
 70
0
280
1
281
0
  0
BLOCK_RECORD
  5
1B
330
9
100
AcDbSymbolTableRecord
100
AcDbBlockTableRecord
  2
*Paper_Space
340
1E
 70
0
280
1
281
0
  0
ENDTAB
  0
ENDSEC
  0
SECTION
  2
BLOCKS
  0
BLOCK
  5
18
330
17
100
AcDbEntity
  8
0
100
AcDbBlockBegin
  2
*Model_Space
 70
0
 10
0.0
 20
0.0
 30
0.0
  3
*Model_Space
  1

  0
ENDBLK
  5
19
330
17
100
AcDbEntity
  8
0
100
AcDbBlockEnd
  0
BLOCK
  5
1C
330
1B
100
AcDbEntity
  8
0
100
AcDbBlockBegin
  2
*Paper_Space
 70
0
 10
0.0
 20
0.0
 30
0.0
  3
*Paper_Space
  1

  0
ENDBLK
  5
1D
330
1B
100
AcDbEntity
  8
0
100
AcDbBlockEnd
  0
ENDSEC
  0
SECTION
  2
ENTITIES
  0
LWPOLYLINE
  5
2F
330
17
100
AcDbEntity
  8
0
100
AcDbPolyline
 90
396
 70
1
 10
0.013773489637927003
 20
-0.001995943454180727
 10
0.013422262846991308
 20
-0.0019928042550192947
 10
0.01307392147087776
 20
-0.001988845960766197
 10
0.012728552323560162
 20
-0.0019840631224294805
 10
0.012386241478270566
 20
-0.0019784508879039965
 10
0.012047074246048062
 20
-0.001972005012556468
 10
0.011711135154477468
 20
-0.0019647218686171327
 10
0.011378507926623246
 20
-0.001956598453328783
 10
0.011049275460164
 20
-0.0019476323958075486
 10
0.010723519806732633
 20
-0.0019378219625734308
 10
0.01040132215146735
 20
-0.0019271660617124918
 10
0.010082762792778602
 20
-0.0019156642456366697
 10
0.009767921122337082
 20
-0.0019033167124114028
 10
0.009456875605287624
 20
-0.0018901243056256446
 10
0.009149703760694034
 20
-0.0018760885127833177
 10
0.008846482142219761
 20
-0.0018612114621999458
 10
0.008547286319049061
 20
-0.0018454959183928717
 10
0.008252190857053627
 20
-0.0018289452759583378
 10
0.007961269300209156
 20
-0.0018115635519335583
 10
0.007674594152266706
 20
-0.0017933553766468866
 10
0.007392236858683199
 20
-0.0017743259830641127
 10
0.007114267788815721
 20
-0.0017544811946439663
 10
0.006840756218384015
 20
-0.0017338274117208571
 10
0.006571770312205527
 20
-0.0017123715964378603
 10
0.006307377107207271
 20
-0.0016901212562579091
 10
0.006047642495718867
 20
-0.0016670844260860047
 10
0.005792631209050734
 20
-0.0016432696490400857
 10
0.005542406801361758
 20
-0.0016186859559128995
 10
0.005297031633820193
 20
-0.0015933428433718155
 10
0.005056566859062018
 20
-0.0015672502509480307
 10
0.00482107240595037
 20
-0.0015404185368709192
 10
0.004590606964640024
 20
-0.0015128584528074725
 10
0.004365227971950595
 20
-0.0014845811175707958
 10
0.004144991597052064
 20
-0.001455597989865411
 10
0.0039299527274662405
 20
-0.0014259208401407482
 10
0.003720164955387637
 20
-0.001395561721627597
 10
0.0035156805643272006
 20
-0.0013645329406354522
 10
0.003316550516082137
 20
-0.0013328470261915783
 10
0.00312282443803516
 20
-0.0013005166991053333
 10
0.002934550610786327
 20
-0.0012675548405436442
 10
0.002751775956120495
 20
-0.0012339744602056569
 10
0.0025745460253134124
 20
-0.0011997886641864387
 10
0.0024029049877794142
 20
-0.0011650106226211417
 10
0.002236895620063445
 20
-0.0011296535372022805
 10
0.002076559295180286
 20
-0.0010937306086637418
 10
0.0019219359723034847
 20
-0.001057255004325745
 10
0.001773064186806736
 20
-0.0010202398257953404
 10
0.0016299810406600447
 20
-0.0009826980769169938
 10
0.001492722193183113
 20
-0.00094464263206753
 10
0.0013613218521583233
 20
-0.0009060862048890945
 10
0.0012358127653054303
 20
-0.0008670413175528191
 10
0.0011162262121201306
 20
-0.0008275202706446655
 10
0.0010025919960785779
 20
-0.0007875351137633595
 10
0.0008949384372097081
 20
-0.0007470976169184428
 10
0.0007932923650373208
 20
-0.0007062192428143616
 10
0.0006976791118935761
 20
-0.0006649111201039957
 10
0.0006081225066056601
 20
-0.0006231840176923686
 10
0.0005246448685571392
 20
-0.0005810483201682173
 10
0.0004472670021254899
 20
-0.0005385140044378496
 10
0.00037600819149723744
 20
-0.0004955906176322096
 10
0.00031088619586190636
 20
-0.0004522872563542357
 10
0.00025191724498607184
 20
-0.0004086125473296901
 10
0.00019911603516855616
 20
-0.00036457462952033554
 10
0.0001524957255778059
 20
-0.0003201811377539726
 10
0.00011206793497235413
 20
-0.0002754391879212228
 10
7.784273880517001e-05
 20
-0.00023035536378414597
 10
4.982866671266462e-05
 20
-0.00018493570543692684
 10
2.8032700388910814e-05
 20
-0.0001391856994536607
 10
1.246027184565457e-05
 20
-9.311027075318632e-05
 10
3.1152620585672697e-06
 20
-4.671377620567295e-05
 10
0.0
 20
0.0
 10
3.1152620585672697e-06
 20
4.671377620567295e-05
 10
1.246027184565457e-05
 20
9.311027075318632e-05
 10
2.8032700388910814e-05
 20
0.0001391856994536607
 10
4.982866671266462e-05
 20
0.00018493570543692684
 10
7.784273880517001e-05
 20
0.00023035536378414597
 10
0.00011206793497235413
 20
0.0002754391879212228
 10
0.0001524957255778059
 20
0.0003201811377539726
 10
0.00019911603516855616
 20
0.00036457462952033554
 10
0.00025191724498607184
 20
0.0004086125473296901
 10
0.00031088619586190636
 20
0.0004522872563542357
 10
0.00037600819149723744
 20
0.0004955906176322096
 10
0.0004472670021254899
 20
0.0005385140044378496
 10
0.0005246448685571392
 20
0.0005810483201682173
 10
0.0006081225066056601
 20
0.0006231840176923686
 10
0.0006976791118935761
 20
0.0006649111201039957
 10
0.0007932923650373208
 20
0.0007062192428143616
 10
0.0008949384372097081
 20
0.0007470976169184428
 10
0.0010025919960785779
 20
0.0007875351137633595
 10
0.0011162262121201306
 20
0.0008275202706446655
 10
0.0012358127653054303
 20
0.0008670413175528191
 10
0.0013613218521583233
 20
0.0009060862048890945
 10
0.001492722193183113
 20
0.00094464263206753
 10
0.0016299810406600447
 20
0.0009826980769169938
 10
0.001773064186806736
 20
0.0010202398257953404
 10
0.0019219359723034847
 20
0.001057255004325745
 10
0.002076559295180286
 20
0.0010937306086637418
 10
0.002236895620063445
 20
0.0011296535372022805
 10
0.0024029049877794142
 20
0.0011650106226211417
 10
0.0025745460253134124
 20
0.0011997886641864387
 10
0.002751775956120495
 20
0.0012339744602056569
 10
0.002934550610786327
 20
0.0012675548405436442
 10
0.00312282443803516
 20
0.0013005166991053333
 10
0.003316550516082137
 20
0.0013328470261915783
 10
0.0035156805643272006
 20
0.0013645329406354522
 10
0.003720164955387637
 20
0.001395561721627597
 10
0.0039299527274662405
 20
0.0014259208401407482
 10
0.004144991597052064
 20
0.001455597989865411
 10
0.004365227971950595
 20
0.0014845811175707958
 10
0.004590606964640024
 20
0.0015128584528074725
 10
0.00482107240595037
 20
0.0015404185368709192
 10
0.005056566859062018
 20
0.0015672502509480307
 10
0.005297031633820193
 20
0.0015933428433718155
 10
0.005542406801361758
 20
0.0016186859559128995
 10
0.005792631209050734
 20
0.0016432696490400857
 10
0.006047642495718867
 20
0.0016670844260860047
 10
0.006307377107207271
 20
0.0016901212562579091
 10
0.006571770312205527
 20
0.0017123715964378603
 10
0.006840756218384015
 20
0.0017338274117208571
 10
0.007114267788815721
 20
0.0017544811946439663
 10
0.007392236858683199
 20
0.0017743259830641127
 10
0.007674594152266706
 20
0.0017933553766468866
 10
0.007961269300209156
 20
0.0018115635519335583
 10
0.008252190857053627
 20
0.0018289452759583378
 10
0.008547286319049061
 20
0.0018454959183928717
 10
0.008846482142219761
 20
0.0018612114621999458
 10
0.009149703760694034
 20
0.0018760885127833177
 10
0.009456875605287624
 20
0.0018901243056256446
 10
0.009767921122337082
 20
0.0019033167124114028
 10
0.010082762792778602
 20
0.0019156642456366697
 10
0.01040132215146735
 20
0.0019271660617124918
 10
0.010723519806732633
 20
0.0019378219625734308
 10
0.011049275460164
 20
0.0019476323958075486
 10
0.011378507926623246
 20
0.001956598453328783
 10
0.011711135154477468
 20
0.0019647218686171327
 10
0.012047074246048062
 20
0.001972005012556468
 10
0.012386241478270566
 20
0.0019784508879039965
 10
0.012728552323560162
 20
0.0019840631224294805
 10
0.01307392147087776
 20
0.001988845960766197
 10
0.013422262846991308
 20
0.0019928042550192947
 10
0.013773489637927003
 20
0.001995943454180727
 10
0.014127514310605178
 20
0.0019982695924031886
 10
0.014484248634655401
 20
0.0019997892761885647
 10
0.01484360370440528
 20
0.0020005096705491775
 10
0.015205489961037676
 20
0.0020004384842027437
 10
0.015569817214910603
 20
0.0019995839538642195
 10
0.01593649466803439
 20
0.0019979548276998576
 10
0.016305430936700442
 20
0.0019955603480105175
 10
0.01667653407425598
 20
0.0019924102332128813
 10
0.017049711594019048
 20
0.0019885146591884693
 10
0.017424870492328184
 20
0.0019838842400713343
 10
0.01780191727172084
 20
0.001978530008546069
 10
0.018180757964234923
 20
0.0019724633957281675
 10
0.01856129815482759
 20
0.0019656962106990106
 10
0.018943443004905428
 20
0.0019582406197675736
 10
0.01932709727596025
 20
0.0019501091255306763
 10
0.019712165353304528
 20
0.001941314545802879
 10
0.020098551269900553
 20
0.0019318699924863025
 10
0.020486158730277447
 20
0.001921788850449466
 10
0.020874891134530022
 20
0.0019110847564828407
 10
0.02126465160239348
 20
0.0018997715783972116
 10
0.021655342997388027
 20
0.0018878633943290445
 10
0.022046867951027303
 20
0.001875374472314972
 10
0.02243912888708467
 20
0.0018623192501952277
 10
0.022832028045911237
 20
0.0018487123159033223
 10
0.023225467508799606
 20
0.0018345683881966137
 10
0.0236193492223873
 20
0.0018199022978794936
 10
0.024013575023093685
 20
0.001804728969567934
 10
0.0244080466615844
 20
0.0017890634040409173
 10
0.024802665827257174
 20
0.0017729206612209772
 10
0.025197334172742836
 20
0.0017563158438226147
 10
0.0255919533384156
 20
0.0017392640817038294
 10
0.02598642497690632
 20
0.0017217805169523238
 10
0.026380650777612702
 20
0.0017038802897342748
 10
0.026774532491200403
 20
0.0016855785249297454
 10
0.02716797195408878
 20
0.001666890319574984
 10
0.027560871112915337
 20
0.0016478307311280482
 10
0.027953132048972703
 20
0.0016284147665702516
 10
0.02834465700261198
 20
0.0016086573723521607
 10
0.028735348397606525
 20
0.0015885734251889054
 10
0.029125108865469984
 20
0.0015681777237058691
 10
0.02951384126972256
 20
0.0015474849809319693
 10
0.029901448730099457
 20
0.00152650981763409
 10
0.030287834646695478
 20
0.0015052667564825846
 10
0.030672902724039754
 20
0.001483770217034228
 10
0.03105655699509459
 20
0.0014620345115155912
 10
0.031438701845172425
 20
0.001440073841386512
 10
0.03181924203576508
 20
0.0014179022946601005
 10
0.03219808272827917
 20
0.0013955338439527905
 10
0.03257512950767182
 20
0.0013729823452349771
 10
0.03295028840598096
 20
0.0013502615372501321
 10
0.033323465925744034
 20
0.0013273850415677234
 10
0.03369456906329956
 20
0.0013043663632329443
 10
0.034063505331965616
 20
0.0012812188919740716
 10
0.03443018278508941
 20
0.0012579559039263466
 10
0.03479451003896233
 20
0.0012345905638295111
 10
0.03515639629559473
 20
0.0012111359276545906
 10
0.03551575136534461
 20
0.001187604945614219
 10
0.03587248568939483
 20
0.0011640104655096727
 10
0.036226510362073014
 20
0.0011403652363669544
 10
0.036577737153008695
 20
0.001116681912313566
 10
0.03692607852912224
 20
0.001092973056647236
 10
0.03727144767643984
 20
0.0010692511460476618
 10
0.037613758521729435
 20
0.001045528574882329
 10
0.03795292575395194
 20
0.0010218176595577972
 10
0.03828886484552254
 20
0.000998130642868235
 10
0.03862149207337676
 20
0.000974479698293746
 10
0.038950724539836
 20
0.0009508769342019221
 10
0.03927648019326738
 20
0.0009273343979071465
 10
0.03959867784853266
 20
0.0009038640795435325
 10
0.0399172372072214
 20
0.0008804779157088506
 10
0.040232078877662926
 20
0.0008571877928385231
 10
0.04054312439471239
 20
0.0008340055502706263
 10
0.04085029623930597
 20
0.0008109429829648744
 10
0.04115351785778026
 20
0.0007880118438407812
 10
0.041452713680950944
 20
0.0007652238457025104
 10
0.04174780914294639
 20
0.0007425906627204134
 10
0.04203873069979085
 20
0.0007201239314419104
 10
0.042325405847733304
 20
0.0006978352513069757
 10
0.042607763141316805
 20
0.000675736184646436
 10
0.04288573221118428
 20
0.0006538382561440779
 10
0.04315924378161599
 20
0.0006321529517466055
 10
0.04342822968779447
 20
0.0006106917170085129
 10
0.043692622892792736
 20
0.0005894659548619668
 10
0.04395235750428114
 20
0.000568487022804976
 10
0.044207368790949275
 20
0.0005477662295041997
 10
0.04445759319863826
 20
0.0005273148308118823
 10
0.04470296836617981
 20
0.0005071440251995733
 10
0.04494343314093799
 20
0.0004872649486142928
 10
0.04517892759404964
 20
0.0004676886687659682
 10
0.045409393035359985
 20
0.0004484261788578948
 10
0.045634772028049414
 20
0.0004294883907749361
 10
0.04585500840294794
 20
0.00041088612774708663
 10
0.04607004727253377
 20
0.0003926301165087018
 10
0.04627983504461236
 20
0.00037473097897649556
 10
0.0464843194356728
 20
0.0003571992234718394
 10
0.04668344948391787
 20
0.0003400452355154266
 10
0.04687717556196485
 20
0.0003232792682245972
 10
0.04706544938921368
 20
0.0003069114323458503
 10
0.04724822404387951
 20
0.00029095168595696475
 10
0.04742545397468659
 20
0.0002754098238751088
 10
0.04759709501222059
 20
0.00026029546680885087
 10
0.047763104379936555
 20
0.0002456180502936537
 10
0.04792344070481972
 20
0.0002313868134514996
 10
0.04807806402769652
 20
0.00021761078761669216
 10
0.04822693581319326
 20
0.00020429878487054575
 10
0.048370018959339955
 20
0.00019145938652858241
 10
0.04850727780681689
 20
0.0001791009316243267
 10
0.04863867814784168
 20
0.0001672315054340426
 10
0.04876418723469457
 20
0.00015585892808704624
 10
0.04888377378787987
 20
0.00014499074330597052
 10
0.04899740800392143
 20
0.00013463420732119953
 10
0.04910506156279029
 20
0.00012479627800317613
 10
0.04920670763496268
 20
0.00011548360425556487
 10
0.049302320888106425
 20
0.00010670251571147095
 10
0.04939187749339435
 20
9.845901277372838e-05
 10
0.04947535513144287
 20
9.075875703916438e-05
 10
0.049552732997874514
 20
8.360706214519204e-05
 10
0.04962399180850277
 20
7.70088850755532e-05
 10
0.049689113804138096
 20
7.096881796025717e-05
 10
0.04974808275501393
 20
6.549108040281555e-05
 10
0.04980088396483145
 20
6.0579512365828154e-05
 10
0.049847504274422194
 20
5.623756764373073e-05
 10
0.04988793206502765
 20
5.2468307949216643e-05
 10
0.04992215726119484
 20
4.927439763733888e-05
 10
0.04995017133328734
 20
4.6658099088766895e-05
 10
0.04997196729961109
 20
4.462126877098988e-05
 10
0.04998753972815435
 20
4.316535399353228e-05
 10
0.049996884737941436
 20
4.2291390370379216e-05
 10
0.05
 20
4.1999999999999266e-05
 10
0.05
 20
-4.1999999999999266e-05
 10
0.049996884737941436
 20
-4.2291390370379216e-05
 10
0.04998753972815435
 20
-4.316535399353228e-05
 10
0.04997196729961109
 20
-4.462126877098988e-05
 10
0.04995017133328734
 20
-4.6658099088766895e-05
 10
0.04992215726119484
 20
-4.927439763733888e-05
 10
0.04988793206502765
 20
-5.2468307949216643e-05
 10
0.049847504274422194
 20
-5.623756764373073e-05
 10
0.04980088396483145
 20
-6.0579512365828154e-05
 10
0.04974808275501393
 20
-6.549108040281555e-05
 10
0.049689113804138096
 20
-7.096881796025717e-05
 10
0.04962399180850277
 20
-7.70088850755532e-05
 10
0.049552732997874514
 20
-8.360706214519204e-05
 10
0.04947535513144287
 20
-9.075875703916438e-05
 10
0.04939187749339435
 20
-9.845901277372838e-05
 10
0.049302320888106425
 20
-0.00010670251571147095
 10
0.04920670763496268
 20
-0.00011548360425556487
 10
0.04910506156279029
 20
-0.00012479627800317613
 10
0.04899740800392143
 20
-0.00013463420732119953
 10
0.04888377378787987
 20
-0.00014499074330597052
 10
0.04876418723469457
 20
-0.00015585892808704624
 10
0.04863867814784168
 20
-0.0001672315054340426
 10
0.04850727780681689
 20
-0.0001791009316243267
 10
0.048370018959339955
 20
-0.00019145938652858241
 10
0.04822693581319326
 20
-0.00020429878487054575
 10
0.04807806402769652
 20
-0.00021761078761669216
 10
0.04792344070481972
 20
-0.0002313868134514996
 10
0.047763104379936555
 20
-0.0002456180502936537
 10
0.04759709501222059
 20
-0.00026029546680885087
 10
0.04742545397468659
 20
-0.0002754098238751088
 10
0.04724822404387951
 20
-0.00029095168595696475
 10
0.04706544938921368
 20
-0.0003069114323458503
 10
0.04687717556196485
 20
-0.0003232792682245972
 10
0.04668344948391787
 20
-0.0003400452355154266
 10
0.0464843194356728
 20
-0.0003571992234718394
 10
0.04627983504461236
 20
-0.00037473097897649556
 10
0.04607004727253377
 20
-0.0003926301165087018
 10
0.04585500840294794
 20
-0.00041088612774708663
 10
0.045634772028049414
 20
-0.0004294883907749361
 10
0.045409393035359985
 20
-0.0004484261788578948
 10
0.04517892759404964
 20
-0.0004676886687659682
 10
0.04494343314093799
 20
-0.0004872649486142928
 10
0.04470296836617981
 20
-0.0005071440251995733
 10
0.04445759319863826
 20
-0.0005273148308118823
 10
0.044207368790949275
 20
-0.0005477662295041997
 10
0.04395235750428114
 20
-0.000568487022804976
 10
0.043692622892792736
 20
-0.0005894659548619668
 10
0.04342822968779447
 20
-0.0006106917170085129
 10
0.04315924378161599
 20
-0.0006321529517466055
 10
0.04288573221118428
 20
-0.0006538382561440779
 10
0.042607763141316805
 20
-0.000675736184646436
 10
0.042325405847733304
 20
-0.0006978352513069757
 10
0.04203873069979085
 20
-0.0007201239314419104
 10
0.04174780914294639
 20
-0.0007425906627204134
 10
0.041452713680950944
 20
-0.0007652238457025104
 10
0.04115351785778026
 20
-0.0007880118438407812
 10
0.04085029623930597
 20
-0.0008109429829648744
 10
0.04054312439471239
 20
-0.0008340055502706263
 10
0.040232078877662926
 20
-0.0008571877928385231
 10
0.0399172372072214
 20
-0.0008804779157088506
 10
0.03959867784853266
 20
-0.0009038640795435325
 10
0.03927648019326738
 20
-0.0009273343979071465
 10
0.038950724539836
 20
-0.0009508769342019221
 10
0.03862149207337676
 20
-0.000974479698293746
 10
0.03828886484552254
 20
-0.000998130642868235
 10
0.03795292575395194
 20
-0.0010218176595577972
 10
0.037613758521729435
 20
-0.001045528574882329
 10
0.03727144767643984
 20
-0.0010692511460476618
 10
0.03692607852912224
 20
-0.001092973056647236
 10
0.036577737153008695
 20
-0.001116681912313566
 10
0.036226510362073014
 20
-0.0011403652363669544
 10
0.03587248568939483
 20
-0.0011640104655096727
 10
0.03551575136534461
 20
-0.001187604945614219
 10
0.03515639629559473
 20
-0.0012111359276545906
 10
0.03479451003896233
 20
-0.0012345905638295111
 10
0.03443018278508941
 20
-0.0012579559039263466
 10
0.034063505331965616
 20
-0.0012812188919740716
 10
0.03369456906329956
 20
-0.0013043663632329443
 10
0.033323465925744034
 20
-0.0013273850415677234
 10
0.03295028840598096
 20
-0.0013502615372501321
 10
0.03257512950767182
 20
-0.0013729823452349771
 10
0.03219808272827917
 20
-0.0013955338439527905
 10
0.03181924203576508
 20
-0.0014179022946601005
 10
0.031438701845172425
 20
-0.001440073841386512
 10
0.03105655699509459
 20
-0.0014620345115155912
 10
0.030672902724039754
 20
-0.001483770217034228
 10
0.030287834646695478
 20
-0.0015052667564825846
 10
0.029901448730099457
 20
-0.00152650981763409
 10
0.02951384126972256
 20
-0.0015474849809319693
 10
0.029125108865469984
 20
-0.0015681777237058691
 10
0.028735348397606525
 20
-0.0015885734251889054
 10
0.02834465700261198
 20
-0.0016086573723521607
 10
0.027953132048972703
 20
-0.0016284147665702516
 10
0.027560871112915337
 20
-0.0016478307311280482
 10
0.02716797195408878
 20
-0.001666890319574984
 10
0.026774532491200403
 20
-0.0016855785249297454
 10
0.026380650777612702
 20
-0.0017038802897342748
 10
0.02598642497690632
 20
-0.0017217805169523238
 10
0.0255919533384156
 20
-0.0017392640817038294
 10
0.025197334172742836
 20
-0.0017563158438226147
 10
0.024802665827257174
 20
-0.0017729206612209772
 10
0.0244080466615844
 20
-0.0017890634040409173
 10
0.024013575023093685
 20
-0.001804728969567934
 10
0.0236193492223873
 20
-0.0018199022978794936
 10
0.023225467508799606
 20
-0.0018345683881966137
 10
0.022832028045911237
 20
-0.0018487123159033223
 10
0.02243912888708467
 20
-0.0018623192501952277
 10
0.022046867951027303
 20
-0.001875374472314972
 10
0.021655342997388027
 20
-0.0018878633943290445
 10
0.02126465160239348
 20
-0.0018997715783972116
 10
0.020874891134530022
 20
-0.0019110847564828407
 10
0.020486158730277447
 20
-0.001921788850449466
 10
0.020098551269900553
 20
-0.0019318699924863025
 10
0.019712165353304528
 20
-0.001941314545802879
 10
0.01932709727596025
 20
-0.0019501091255306763
 10
0.018943443004905428
 20
-0.0019582406197675736
 10
0.01856129815482759
 20
-0.0019656962106990106
 10
0.018180757964234923
 20
-0.0019724633957281675
 10
0.01780191727172084
 20
-0.001978530008546069
 10
0.017424870492328184
 20
-0.0019838842400713343
 10
0.017049711594019048
 20
-0.0019885146591884693
 10
0.01667653407425598
 20
-0.0019924102332128813
 10
0.016305430936700442
 20
-0.0019955603480105175
 10
0.016017088929929486
 20
-0.0019974317527419985
 10
0.013999999999999983
 20
-0.0019974317527419985
 10
0.013773489637927003
 20
-0.001995943454180727
  0
LINE
  5
33
330
17
100
AcDbEntity
  8
MARKS
100
AcDbLine
 10
0.034999999999999996
 20
0.001221272312071106
 30
0.0
 11
0.034999999999999996
 21
-0.001221272312071106
 31
0.0
  0
LINE
  5
34
330
17
100
AcDbEntity
  8
CHORD_LINE
100
AcDbLine
 10
0.0
 20
0.0
 30
0.0
 11
0.05
 21
0.0
 31
0.0
  0
TEXT
  5
35
330
17
100
AcDbEntity
  8
DIMENSIONS
100
AcDbText
 10
0.025
 20
-0.015
 30
0.0
 40
0.008
  1
Chord: 50.0mm
100
AcDbText
  0
ENDSEC
  0
SECTION
  2
OBJECTS
  0
DICTIONARY
  5
A
330
0
100
AcDbDictionary
281
1
  3
ACAD_COLOR
350
B
  3
ACAD_GROUP
350
C
  3
ACAD_LAYOUT
350
D
  3
ACAD_MATERIAL
350
E
  3
ACAD_MLEADERSTYLE
350
F
  3
ACAD_MLINESTYLE
350
10
  3
ACAD_PLOTSETTINGS
350
11
  3
ACAD_PLOTSTYLENAME
350
12
  3
ACAD_SCALELIST
350
14
  3
ACAD_TABLESTYLE
350
15
  3
ACAD_VISUALSTYLE
350
16
  3
EZDXF_META
350
2D
  0
DICTIONARY
  5
B
330
A
100
AcDbDictionary
281
1
  0
DICTIONARY
  5
C
330
A
100
AcDbDictionary
281
1
  0
DICTIONARY
  5
D
330
A
100
AcDbDictionary
281
1
  3
Model
350
1A
  3
Layout1
350
1E
  0
DICTIONARY
  5
E
330
A
100
AcDbDictionary
281
1
  3
ByBlock
350
1F
  3
ByLayer
350
20
  3
Global
350
21
  0
DICTIONARY
  5
F
330
A
100
AcDbDictionary
281
1
  3
Standard
350
2C
  0
DICTIONARY
  5
10
330
A
100
AcDbDictionary
281
1
  3
Standard
350
22
  0
DICTIONARY
  5
11
330
A
100
AcDbDictionary
281
1
  0
ACDBDICTIONARYWDFLT
  5
12
330
A
100
AcDbDictionary
281
1
  3
Normal
350
13
100
AcDbDictionaryWithDefault
340
13
  0
ACDBPLACEHOLDER
  5
13
330
12
  0
DICTIONARY
  5
14
330
A
100
AcDbDictionary
281
1
  0
DICTIONARY
  5
15
330
A
100
AcDbDictionary
281
1
  0
DICTIONARY
  5
16
330
A
100
AcDbDictionary
281
1
  0
LAYOUT
  5
1A
330
D
100
AcDbPlotSettings
  1

  4
A3
  6

 40
7.5
 41
20.0
 42
7.5
 43
20.0
 44
420.0
 45
297.0
 46
0.0
 47
0.0
 48
0.0
 49
0.0
140
0.0
141
0.0
142
1.0
143
1.0
 70
1024
 72
1
 73
0
 74
5
  7

 75
16
 76
0
 77
2
 78
300
147
1.0
148
0.0
149
0.0
100
AcDbLayout
  1
Model
 70
1
 71
0
 10
0.0
 20
0.0
 11
420.0
 21
297.0
 12
0.0
 22
0.0
 32
0.0
 14
1e+20
 24
1e+20
 34
1e+20
 15
-1e+20
 25
-1e+20
 35
-1e+20
146
0.0
 13
0.0
 23
0.0
 33
0.0
 16
1.0
 26
0.0
 36
0.0
 17
0.0
 27
1.0
 37
0.0
 76
1
330
17
  0
LAYOUT
  5
1E
330
D
100
AcDbPlotSettings
  1

  4
A3
  6

 40
7.5
 41
20.0
 42
7.5
 43
20.0
 44
420.0
 45
297.0
 46
0.0
 47
0.0
 48
0.0
 49
0.0
140
0.0
141
0.0
142
1.0
143
1.0
 70
0
 72
1
 73
0
 74
5
  7

 75
16
 76
0
 77
2
 78
300
147
1.0
148
0.0
149
0.0
100
AcDbLayout
  1
Layout1
 70
1
 71
1
 10
0.0
 20
0.0
 11
420.0
 21
297.0
 12
0.0
 22
0.0
 32
0.0
 14
1e+20
 24
1e+20
 34
1e+20
 15
-1e+20
 25
-1e+20
 35
-1e+20
146
0.0
 13
0.0
 23
0.0
 33
0.0
 16
1.0
 26
0.0
 36
0.0
 17
0.0
 27
1.0
 37
0.0
 76
1
330
1B
  0
MATERIAL
  5
1F
102
{ACAD_REACTORS
330
E
102
}
330
E
100
AcDbMaterial
  1
ByBlock
  2

 70
0
 40
1.0
 71
1
 41
1.0
 91
-1023410177
 42
1.0
 72
1
  3

 73
1
 74
1
 75
1
 44
0.5
 73
0
 45
1.0
 46
1.0
 77
1
  4

 78
1
 79
1
170
1
 48
1.0
171
1
  6

172
1
173
1
174
1
140
1.0
141
1.0
175
1
  7

176
1
177
1
178
1
143
1.0
179
1
  8

270
1
271
1
272
1
145
1.0
146
1.0
273
1
  9

274
1
275
1
276
1
 42
1.0
 72
1
  3

 73
1
 74
1
 75
1
 94
63
  0
MATERIAL
  5
20
102
{ACAD_REACTORS
330
E
102
}
330
E
100
AcDbMaterial
  1
ByLayer
  2

 70
0
 40
1.0
 71
1
 41
1.0
 91
-1023410177
 42
1.0
 72
1
  3

 73
1
 74
1
 75
1
 44
0.5
 73
0
 45
1.0
 46
1.0
 77
1
  4

 78
1
 79
1
170
1
 48
1.0
171
1
  6

172
1
173
1
174
1
140
1.0
141
1.0
175
1
  7

176
1
177
1
178
1
143
1.0
179
1
  8

270
1
271
1
272
1
145
1.0
146
1.0
273
1
  9

274
1
275
1
276
1
 42
1.0
 72
1
  3

 73
1
 74
1
 75
1
 94
63
  0
MATERIAL
  5
21
102
{ACAD_REACTORS
330
E
102
}
330
E
100
AcDbMaterial
  1
Global
  2

 70
0
 40
1.0
 71
1
 41
1.0
 91
-1023410177
 42
1.0
 72
1
  3

 73
1
 74
1
 75
1
 44
0.5
 73
0
 45
1.0
 46
1.0
 77
1
  4

 78
1
 79
1
170
1
 48
1.0
171
1
  6

172
1
173
1
174
1
140
1.0
141
1.0
175
1
  7

176
1
177
1
178
1
143
1.0
179
1
  8

270
1
271
1
272
1
145
1.0
146
1.0
273
1
  9

274
1
275
1
276
1
 42
1.0
 72
1
  3

 73
1
 74
1
 75
1
 94
63
  0
MLINESTYLE
  5
22
102
{ACAD_REACTORS
330
10
102
}
330
10
100
AcDbMlineStyle
  2
Standard
 70
0
  3

 62
256
 51
90.0
 52
90.0
 71
2
 49
0.5
 62
256
  6
BYLAYER
 49
-0.5
 62
256
  6
BYLAYER
  0
MLEADERSTYLE
  5
2C
102
{ACAD_REACTORS
330
F
102
}
330
F
100
AcDbMLeaderStyle
179
2
170
2
171
1
172
0
 90
2
 40
0.0
 41
0.0
173
1
 91
-1056964608
 92
-2
290
1
 42
2.0
291
1
 43
8.0
  3
Standard
 44
4.0
300

342
29
174
1
175
1
176
0
178
1
 93
-1056964608
 45
4.0
292
0
297
0
 46
4.0
 94
-1056964608
 47
1.0
 49
1.0
140
1.0
294
1
141
0.0
177
0
142
1.0
295
0
296
0
143
3.75
271
0
272
9
273
9
  0
DICTIONARY
  5
2D
330
A
100
AcDbDictionary
280
1
281
1
  3
CREATED_BY_EZDXF
350
2E
  3
WRITTEN_BY_EZDXF
350
38
  0
DICTIONARYVAR
  5
2E
330
2D
100
DictionaryVariables
280
0
  1
1.4.2 @ 2025-07-26T19:49:27.159438+00:00
  0
DICTIONARYVAR
  5
38
330
2D
100
DictionaryVariables
280
0
  1
1.4.2 @ 2025-07-26T19:49:27.160827+00:00
  0
ENDSEC
  0
EOF
